<svg width="169" height="16" viewBox="0 0 169 16" fill="none" xmlns="http://www.w3.org/2000/svg"><path d="M85.8882 6.51334C83.813 6.13453 82.573 5.58044 82.573 4.44965C82.573 3.63124 83.4283 3.0079 84.7171 3.00083C86.4106 3.00083 87.4238 3.77825 87.9907 5.55358L90.9213 3.8885C90.0215 1.33574 87.83 0 84.8334 0C81.2455 0 78.9679 1.9916 78.9679 4.40018C78.9679 7.35154 81.1551 8.90637 84.4947 9.37423C87.2889 9.77284 87.9878 10.3071 87.9878 11.3729C87.9878 12.3298 86.9057 12.8839 85.2811 12.8839C83.094 12.8839 81.4249 11.7319 80.7676 9.44349L77.7251 11.3319C78.4024 13.021 79.3941 14.2182 80.726 14.9306C82.0893 15.6529 83.6178 16.0204 85.1663 15.9978C89.1517 15.9978 91.5972 13.9992 91.5972 11.2669C91.5972 8.35653 89.8822 7.24553 85.8896 6.51193L85.8882 6.51334ZM163.178 6.51334C161.103 6.13453 159.863 5.58044 159.863 4.44965C159.863 3.63124 160.719 3.0079 162.007 3.00083C163.701 3.00083 164.714 3.77825 165.281 5.55358L168.211 3.8885C167.31 1.33574 165.12 0 162.124 0C158.536 0 156.258 1.9916 156.258 4.40018C156.258 7.35154 158.445 8.90637 161.785 9.37423C164.579 9.77284 165.278 10.3071 165.278 11.3729C165.278 12.3298 164.194 12.8839 162.571 12.8839C160.381 12.8839 158.715 11.7319 158.062 9.44349L155.017 11.3319C155.694 13.021 156.686 14.2182 158.018 14.9306C159.381 15.6529 160.909 16.019 162.458 15.9978C166.443 15.9978 168.889 13.9992 168.889 11.2669C168.889 8.35653 167.174 7.24553 163.181 6.51193L163.178 6.51334ZM101.249 0.230398H93.6926V15.7773H97.2905V10.0046H101.249C104.72 10.0046 106.547 7.62717 106.547 5.09561C106.547 2.56406 104.766 0.230398 101.249 0.230398ZM101.01 6.78049H97.2905V3.45032H101.01C102.184 3.45032 102.928 4.04822 102.928 5.1154C102.928 6.18258 102.184 6.78049 101.01 6.78049ZM111.669 0.230398L105.465 15.7773H109.412L110.63 12.5574H117.899L119.105 15.7773H123.051L116.853 0.230398H111.669ZM111.847 9.33748L114.261 2.98245L116.675 9.33748H111.847ZM131.311 12.7807C128.785 12.7807 126.619 10.857 126.619 7.96782C126.619 5.07865 128.695 3.18882 131.219 3.18882C133.409 3.18882 135.009 4.47227 135.46 6.62925L138.775 5.16346C138.102 2.27147 135.461 0.00424046 131.289 0.00424046C130.207 -0.0282697 129.128 0.155483 128.119 0.544192C127.11 0.9329 126.192 1.51808 125.418 2.26582C124.645 3.01355 124.033 3.90687 123.618 4.89207C123.205 5.87869 122.998 6.93597 123.01 8.00315C123.01 12.5786 126.259 15.9978 131.289 15.9978C135.618 15.9978 138.505 13.6246 139.428 9.80535L136.113 8.49505C135.596 11.093 133.993 12.7821 131.309 12.7821L131.311 12.7807ZM145.147 9.44774H153.076V6.22782H145.147V3.45173H153.751V0.230398H141.549V15.7632H153.968V12.5433H145.147V9.44632V9.44774ZM73.3665 8.89365C74.2491 8.57844 75.0126 8.00457 75.5537 7.24835C76.099 6.53737 76.399 5.67232 76.409 4.78182C76.409 2.15981 74.4256 0.230398 71.1104 0.230398H63.22V15.7773H66.8279V9.89016H69.7585C71.2252 9.89016 72.0576 10.6916 72.0576 12.2224C72.0418 12.9645 72.0734 13.7066 72.148 14.4444C72.2155 14.9052 72.3518 15.3547 72.5528 15.7759L76.6157 15.766V15.4225C76.0502 14.6451 75.8723 13.6232 75.7804 12.1136C75.69 10.4245 74.6969 9.23713 73.3665 8.89365ZM70.9985 6.67165H66.8279V3.45173H70.9985C72.2844 3.45173 72.9159 4.05388 72.9159 5.00656C72.9159 5.95925 72.2829 6.67165 70.9985 6.67165ZM8.16746 6.51334C6.09223 6.13877 4.85225 5.58468 4.85225 4.44965C4.85225 3.63124 5.70761 3.0079 6.99637 3.0079C8.68699 3.0079 9.70307 3.78531 10.2657 5.56065L13.1962 3.89557C12.2964 1.34281 10.1092 0.00706743 7.10832 0.00706743C3.52474 0.00706743 1.24715 1.99584 1.24715 4.40442C1.24715 7.36002 3.43432 8.91485 6.76962 9.38272C9.56386 9.78132 10.2628 10.3156 10.2628 11.3814C10.2628 12.3341 9.18068 12.8924 7.55608 12.8924C5.36891 12.8924 3.69983 11.7404 3.04683 9.45198L0 11.3333C0.677392 13.0224 1.66908 14.2197 3.00091 14.9321C4.36717 15.6515 5.89561 16.019 7.44414 15.9992C11.4267 15.9992 13.8708 14.0006 13.8708 11.2683C13.8708 8.35794 12.1558 7.24694 8.16602 6.51334H8.16746ZM34.0131 15.7915H37.6211V9.79545H45.3796V6.54726H37.6182V3.45032H46.0512V0.230398H34.0146V15.7915H34.0131ZM20.9518 0.230398L14.762 15.7674H18.7087L19.9242 12.5475H27.1861L28.3945 15.7787H32.3412L26.1385 0.230398H20.9518ZM21.1341 9.33748L23.548 2.98387L25.9619 9.33748H21.1341ZM52.1076 9.45056H60.0224V6.2264H52.1004V3.45032H60.6898V0.230398H48.4953V15.7674H60.9165V12.5475H52.1076V9.45056Z" fill="#2A1482"/></svg>
