<?xml version="1.0" encoding="UTF-8"?>
<svg xmlns="http://www.w3.org/2000/svg" xmlns:xlink="http://www.w3.org/1999/xlink" width="177px" height="54px" version="1.1" viewBox="0 0 177 54">
<!--Generator: Sketch 53.2 (72643) - https://sketchapp.com-->
    <title>
        logo
    </title>
    <desc>
        Created with Sketch.
    </desc>
    <g id="Symbols" fill="none" fill-rule="evenodd" stroke="none" strokeWidth="1">
        <g id="Header_startseite_default" transform="translate(-32.000000, -30.000000)">
            <g id="Header_startseite_trans_zweireihig">
                <g id="main_nav">
                    <g id="logo" transform="translate(32.000000, 30.000000)">
                        <path id="Fill-1" fill="#15415A" d="M0.0659447005,24.4995474 C0.0659447005,24.859184 0.402519949,25.1834101 0.775854269,25.1834101 L4.2484378,25.1834101 C4.62177212,25.1834101 4.95834737,24.859184 4.95834737,24.4995474 L4.95834737,0.683862706 C4.95834737,0.32422617 4.62177212,0 4.2484378,0 L0.775854269,0 C0.402519949,0 0.0659447005,0.32422617 0.0659447005,0.683862706 L0.0659447005,24.4995474 Z M13.2854258,24.4995474 C13.2854258,24.859184 13.5840932,25.1834101 13.9964841,25.1834101 L17.4311598,25.1834101 C17.8044941,25.1834101 18.1410694,24.859184 18.1410694,24.4995474 L18.1410694,15.3979766 L27.3652989,15.3979766 C27.7386332,15.3979766 28.0752085,15.074857 28.0752085,14.7141139 L28.0752085,11.7639877 C28.0752085,11.4054578 27.7386332,11.080125 27.3652989,11.080125 L18.1410694,11.080125 L18.1410694,4.31785158 L29.1952114,4.31785158 C29.6053048,4.31785158 29.9039723,3.99362541 29.9039723,3.63398888 L29.9039723,0.683862706 C29.9039723,0.32422617 29.6053048,0 29.1952114,0 L13.9964841,0 C13.5840932,0 13.2854258,0.32422617 13.2854258,0.683862706 L13.2854258,24.4995474 Z M48.2410053,12.2685855 C50.1834925,11.3324239 51.9754973,9.35386967 51.9754973,6.65604236 C51.9754973,2.87819886 48.5408215,0 44.09642,0 L35.5441923,0 C35.1340989,0 34.8342827,0.32422617 34.8342827,0.683862706 L34.8342827,24.4995474 C34.8342827,24.859184 35.1340989,25.1834101 35.5441923,25.1834101 L44.5811803,25.1834101 C49.1370077,25.1834101 52.7221659,22.2698009 52.7221659,18.2407651 C52.7221659,14.8590751 50.4074931,13.1682301 48.2410053,12.448957 L48.2410053,12.2685855 Z M39.6508698,10.5766339 L39.6508698,4.28133464 L43.721937,4.28133464 C45.6276651,4.28133464 46.859094,5.54061581 46.859094,7.33990506 C46.859094,9.13808775 45.6276651,10.5766339 43.721937,10.5766339 L39.6508698,10.5766339 Z M39.6508698,20.9374859 L39.6508698,14.5359555 L44.2457538,14.5359555 C46.1124254,14.5359555 47.5322445,15.8649508 47.5322445,17.6653467 C47.5322445,19.5343501 46.1124254,20.9374859 44.2457538,20.9374859 L39.6508698,20.9374859 L39.6508698,20.9374859 Z"/>
                        <path id="Fill-2" fill="#D5232E" d="M0.0659447005,52.9256786 C0.0659447005,53.2277821 0.355049022,53.4988182 0.674884906,53.4988182 L1.9280497,53.4988182 C2.28203177,53.4988182 2.53698991,53.2277821 2.53698991,52.9256786 L2.53698991,43.7736569 L15.5671721,43.7736569 L15.5671721,52.9256786 C15.5671721,53.2277821 15.8255449,53.4988182 16.1783887,53.4988182 L17.4281389,53.4988182 C17.7502512,53.4988182 18.0382173,53.2277821 18.0382173,52.9256786 L18.0382173,32.9279273 C18.0382173,32.6268951 17.7502512,32.3537164 17.4281389,32.3537164 L16.1783887,32.3537164 C15.8255449,32.3537164 15.5671721,32.6268951 15.5671721,32.9279273 L15.5671721,41.7489207 L2.53698991,41.7489207 L2.53698991,32.9279273 C2.53698991,32.6268951 2.28203177,32.3537164 1.9280497,32.3537164 L0.674884906,32.3537164 C0.355049022,32.3537164 0.0659447005,32.6268951 0.0659447005,32.9279273 L0.0659447005,52.9256786 Z M22.3394977,53.4988182 L23.6222559,53.4988182 C23.910222,53.4988182 24.1025788,53.3177703 24.1663184,53.1667186 L26.5098845,48.1830823 L37.9033265,48.1830823 L40.2776242,53.1667186 C40.3425019,53.3177703 40.5348587,53.4988182 40.823963,53.4988182 L42.1078594,53.4988182 C42.5893205,53.4988182 42.8454169,53.1056551 42.6530601,52.7135634 L32.9612361,32.3847838 C32.8656268,32.2037359 32.7028633,32.0516129 32.4148972,32.0516129 L32.0939231,32.0516129 C31.8048188,32.0516129 31.6443317,32.2037359 31.5487224,32.3847838 L21.7920207,52.7135634 C21.5985256,53.1056551 21.8568984,53.4988182 22.3394977,53.4988182 L22.3394977,53.4988182 Z M27.4090672,46.3104692 L32.0939231,36.4021174 L32.3522959,36.4021174 C33.9230201,39.6941884 35.464151,43.0173268 37.0360135,46.3104692 L27.4090672,46.3104692 Z M45.1036176,52.7746268 C45.0080083,53.197786 45.2003651,53.4988182 45.680688,53.4988182 L46.9634462,53.4988182 C47.2218189,53.4988182 47.5109232,53.2877742 47.5416548,53.0767303 L50.3336741,37.5194718 L50.4634296,37.5194718 L56.43332,53.4698934 C56.4970595,53.6498699 56.7850257,53.8009217 56.9785207,53.8009217 L57.5555911,53.8009217 C57.7479479,53.8009217 58.0370523,53.6498699 58.10193,53.4698934 L64.0069427,37.5194718 L64.1344217,37.5194718 L66.9913188,53.0767303 C67.0550583,53.2877742 67.3122929,53.4988182 67.5683892,53.4988182 L68.8534238,53.4988182 C69.3360231,53.4988182 69.5272417,53.197786 69.4316324,52.7746268 L65.290839,32.4758433 C65.2259613,32.233732 64.9698649,32.0516129 64.7114922,32.0516129 L64.1981613,32.0516129 C63.9750729,32.0516129 63.7167001,32.2037359 63.6540988,32.3847838 L57.3951041,49.0283293 L57.234617,49.0283293 L50.8811512,32.3847838 C50.8151352,32.2037359 50.5590389,32.0516129 50.3336741,32.0516129 L49.8203432,32.0516129 C49.5642469,32.0516129 49.3070123,32.233732 49.244411,32.4758433 L45.1036176,52.7746268 Z M76.839077,41.8399803 L76.839077,34.439516 L81.7185661,34.439516 C84.3500984,34.439516 85.9219608,35.88897 85.9219608,38.0636866 C85.9219608,40.1773398 84.3500984,41.8399803 81.7185661,41.8399803 L76.839077,41.8399803 Z M76.7741993,51.4751533 L76.7741993,43.9236373 L82.2967748,43.9236373 C84.734812,43.9236373 86.6606565,45.4930757 86.6606565,47.6388675 C86.6606565,49.8135841 85.0227781,51.4751533 82.4242538,51.4751533 L76.7741993,51.4751533 Z M85.536109,42.7152234 C87.0135004,41.8689051 88.6502406,40.3594589 88.6502406,37.9126349 C88.6502406,34.7405482 86.0494399,32.3537164 82.1351495,32.3537164 L75.042988,32.3537164 C74.6890059,32.3537164 74.4329096,32.6268951 74.4329096,32.9279273 L74.4329096,52.9256786 C74.4329096,53.2277821 74.6890059,53.4988182 75.042988,53.4988182 L82.5836027,53.4988182 C86.563909,53.4988182 89.3570665,51.0509229 89.3570665,47.6688636 C89.3570665,44.9199361 87.237727,43.440486 85.536109,42.7752155 L85.536109,42.7152234 Z M93.8404599,45.8273178 C93.8404599,50.4188624 97.2755656,53.8009217 102.314404,53.8009217 C107.385111,53.8009217 110.84981,50.4188624 110.84981,45.8273178 L110.84981,32.9279273 C110.84981,32.6268951 110.560706,32.3537164 110.24087,32.3537164 L109.020713,32.3537164 C108.667869,32.3537164 108.410635,32.6268951 108.410635,32.9279273 L108.410635,45.7051909 C108.410635,49.1493849 106.101215,51.6562011 102.314404,51.6562011 C98.559462,51.6562011 96.2796354,49.0893928 96.2796354,45.6451987 L96.2796354,32.9279273 C96.2796354,32.6268951 96.0224008,32.3537164 95.6706951,32.3537164 L94.4516765,32.3537164 C94.1295642,32.3537164 93.8404599,32.6268951 93.8404599,32.9279273 L93.8404599,45.8273178 Z M116.428158,52.9256786 C116.428158,53.2277821 116.683116,53.4988182 117.037098,53.4988182 L118.289125,53.4988182 C118.60896,53.4988182 118.898065,53.2277821 118.898065,52.9256786 L118.898065,45.2220396 L125.028442,45.2220396 L129.199967,53.0467342 C129.360454,53.3488377 129.52208,53.4988182 129.906793,53.4988182 L131.446786,53.4988182 C131.993125,53.4988182 132.216213,53.0156668 131.993125,52.6214325 L127.595097,44.9510034 C130.388254,43.8936412 132.34483,41.5678729 132.34483,38.787878 C132.34483,35.1937035 129.199967,32.3537164 125.349416,32.3537164 L117.037098,32.3537164 C116.683116,32.3537164 116.428158,32.6268951 116.428158,32.9279273 L116.428158,52.9256786 Z M118.961804,43.2294421 L118.961804,34.5605717 L125.186653,34.5605717 C127.658836,34.5605717 129.811184,36.5231731 129.811184,38.8189454 C129.811184,41.2957655 127.658836,43.2294421 125.186653,43.2294421 L118.961804,43.2294421 Z M135.976846,42.9562634 C135.976846,48.9983332 141.144301,53.8009217 147.561506,53.8009217 C152.215631,53.8009217 155.489111,51.8083242 155.489111,51.8083242 C155.617728,51.7172646 155.745207,51.4751533 155.745207,51.3241016 L155.745207,44.4067886 C155.745207,44.1046852 155.489111,43.8325778 155.169275,43.8325778 L149.615968,43.8325778 C149.263124,43.8325778 149.007028,44.0746891 149.007028,44.4067886 L149.007028,45.524143 C149.007028,45.8273178 149.263124,46.0694291 149.615968,46.0694291 L153.306032,46.0694291 L153.306032,50.2967354 C153.306032,50.2967354 151.06149,51.5651416 147.530775,51.5651416 C142.460067,51.5651416 138.608378,47.4878157 138.608378,42.836279 C138.608378,38.1536749 142.460067,34.1674086 147.530775,34.1674086 C149.680846,34.1674086 151.992542,35.1626361 153.628144,36.5231731 C153.980988,36.8242053 154.174483,36.856344 154.462449,36.5520979 C154.718546,36.2799905 155.072528,35.9789583 155.360494,35.7068509 C155.617728,35.4658109 155.585859,35.1026439 155.329762,34.8616039 C153.146683,33.1100464 150.804255,32.0516129 147.561506,32.0516129 C141.144301,32.0516129 135.976846,36.9141936 135.976846,42.9562634 L135.976846,42.9562634 Z"/>
                        <path id="Fill-6" fill="#15415A" d="M175.486347,0 L174.924982,0 C174.448207,0 174.060415,0.184180615 174.060415,0.666558416 L174.060415,24.5157554 C174.060415,24.9981332 174.448207,25.1834101 174.924982,25.1834101 L175.486347,25.1834101 C175.962024,25.1834101 176.349816,24.9981332 176.349816,24.5157554 L176.349816,0.666558416 C176.349816,0.184180615 175.962024,0 175.486347,0"/>
                        <path id="Fill-7" fill="#D5232E" d="M175.486347,28.6175115 L174.924982,28.6175115 C174.448207,28.6175115 174.060415,28.8027884 174.060415,29.2840699 L174.060415,53.1343632 C174.060415,53.6156447 174.448207,53.8009217 174.924982,53.8009217 L175.486347,53.8009217 C175.962024,53.8009217 176.349816,53.6156447 176.349816,53.1343632 L176.349816,29.2840699 C176.349816,28.8027884 175.962024,28.6175115 175.486347,28.6175115"/>
                    </g>
                </g>
            </g>
        </g>
    </g>
</svg>
