<svg width="32" height="32" viewBox="-5 -2 216 219" fill="none" xmlns="http://www.w3.org/2000/svg">
<path fill-rule="evenodd" clip-rule="evenodd" d="M132.067 19.5337C130.901 25.5068 127.284 29.3913 121.231 29.3913C115.534 29.3913 110.648 24.9688 110.648 18.3233C110.648 11.6777 115.329 7.33439 121.027 7.33439C125.968 7.33439 129.577 10.2853 130.593 15.2458L138.072 11.8755C136.551 5.22206 130.593 0.00846541 121.184 0.00846541C118.741 -0.0663678 116.309 0.355575 114.032 1.24891C111.756 2.14225 109.683 3.48854 107.939 5.20681C106.194 6.92508 104.813 8.97982 103.88 11.2475C102.947 13.5152 102.48 15.9489 102.508 18.4024C102.508 28.9245 109.836 36.7884 121.184 36.7884C130.948 36.7884 137.465 31.3296 139.546 22.548L132.067 19.5337ZM11.2833 10.2302C11.2833 12.8331 14.0808 14.1068 18.7617 14.9771C27.769 16.6622 31.6383 19.2176 31.6383 25.9106C31.6383 32.1922 26.122 36.7887 17.1305 36.7887C13.6382 36.8416 10.1904 35.9974 7.11454 34.3362C4.11211 32.6985 1.87406 29.9454 0.345258 26.0609L7.2091 21.7176C8.69061 26.9786 12.4574 29.6289 17.3906 29.6289C21.0549 29.6289 23.4979 28.3552 23.4979 26.1558C23.4979 23.7033 21.9218 22.4771 15.6175 21.5593C8.08381 20.4834 3.15068 16.9074 3.15068 10.1195C3.15068 4.58153 8.28873 0.000849546 16.3819 0.000849546C23.1433 0.000849546 28.0843 3.07045 30.1174 8.94069L23.5058 12.7698C22.2291 8.68753 19.9438 6.89955 16.1218 6.89955C13.214 6.91538 11.2833 8.34734 11.2833 10.2302ZM33.0722 51.5985C34.1283 51.4452 35.156 51.136 36.122 50.6808L36.0983 41.4798H35.3102C33.5293 42.7615 31.1888 43.1649 27.7293 43.3706C23.86 43.5763 21.1413 45.8232 20.3533 48.8374C19.6325 46.8382 18.3176 45.1095 16.5864 43.8849C14.9575 42.6497 12.9774 41.9704 10.9362 41.9466C4.93133 41.9466 0.510441 46.4403 0.510441 53.9481V71.8199H36.122V63.6475H22.6386V57.0098C22.6386 53.6871 24.4747 51.8042 27.9815 51.8042C29.681 51.8386 31.381 51.7699 33.0722 51.5985ZM11.4484 49.858C13.6313 49.858 15.2625 51.2899 15.2625 54.2013V63.6475H7.88648V54.2013C7.88648 51.2899 9.26556 49.858 11.4484 49.858ZM0.510441 77.5473H7.88648V97.0013H14.246V79.0583H21.6299V96.9855H28.7222V77.033H36.0983V105.166H0.510441V77.5473ZM7.88648 110.704H0.510441V137.967H36.1535V129.794H22.4179V112.223H14.9788V129.802H7.88648V110.704ZM0.510441 167.548V155.799L36.122 141.749V150.689L28.7222 153.426V169.874L36.0983 172.627V181.567L0.510441 167.548ZM21.3698 156.203L6.81476 161.67L21.3698 167.136V156.203ZM10.1736 204.011C12.7741 204.011 14.0429 201.203 14.9019 196.503C16.5804 187.468 19.1258 183.584 25.7926 183.584C32.0496 183.584 36.6281 189.122 36.6281 198.141C36.6752 201.649 35.8346 205.111 34.1852 208.204C32.5539 211.218 29.8115 213.465 25.9423 215L21.6317 208.101C26.8722 206.622 29.5121 202.84 29.5121 197.888C29.5121 194.209 28.2355 191.756 26.0526 191.756C23.6097 191.756 22.3882 193.339 21.4741 199.668C20.4023 207.223 16.8404 212.176 10.0712 212.176C4.55489 212.176 0 207.017 0 198.9C0 192.104 3.05758 187.152 8.90484 185.111L12.719 191.748C8.65269 193.022 6.87173 195.324 6.87173 199.153C6.87173 202.073 8.29808 204.011 10.1736 204.011ZM36.3672 36.2823H44.484V23.007H53.4125C61.2456 23.007 65.367 17.5402 65.367 11.7175C65.367 5.68901 61.348 0.530797 53.4125 0.530797H36.3672V36.2823ZM57.203 11.7649C57.203 14.2175 55.5244 15.594 52.8766 15.594H44.484V7.93584H52.8766C55.5244 7.93584 57.203 9.31242 57.203 11.7649ZM76.9219 0.530797H88.6164L102.604 36.2823H93.6993L90.9805 28.8772H74.5814L71.8312 36.2823H62.9264L76.9219 0.530797ZM88.2145 21.4722L82.7692 6.85989L77.3238 21.4722H88.2145ZM171.855 0.530797V7.93584H152.446V14.3203H170.334V21.7254H152.446V28.8456H172.344V36.2506H144.329V0.530797H171.855ZM193.124 14.9771C188.443 14.1068 185.645 12.8331 185.645 10.2302C185.645 8.34734 187.576 6.91538 190.484 6.89955C194.306 6.89955 196.591 8.68753 197.868 12.7698L204.48 8.94069C202.446 3.07045 197.505 0.000849546 190.744 0.000849546C182.651 0.000849546 177.513 4.58153 177.513 10.1195C177.513 16.9074 182.446 20.4834 189.98 21.5593C196.284 22.4771 197.86 23.7033 197.86 26.1558C197.86 28.3552 195.417 29.6289 191.753 29.6289C186.812 29.6289 183.053 26.9786 181.579 21.7176L174.707 26.0609C176.236 29.9454 178.474 32.6985 181.477 34.3362C184.553 35.9957 188.001 36.8399 191.493 36.7887C200.484 36.7887 206 32.1922 206 25.9106C206 19.2176 202.131 16.6622 193.124 14.9771Z" fill="#2A1482"/>
</svg>
