<svg width="81" height="84" viewBox="0 0 81 84" fill="none" xmlns="http://www.w3.org/2000/svg"><g clip-path="url(#clip0_6455_45955)"><path d="M10.1419 71.7259C7.52063 71.7259 6.51994 73.2435 5.85956 76.7732C5.5215 78.6094 5.02313 79.7065 4.0005 79.7065C3.26306 79.7065 2.70225 78.9494 2.70225 77.8086C2.70225 76.3123 3.40256 75.413 5.00119 74.9157L3.50156 72.3223C1.20263 73.1198 0 75.0546 0 77.7101C0 80.8814 1.791 82.8968 3.96 82.8968C6.62175 82.8968 8.02238 80.962 8.44369 78.0102C8.80313 75.5373 9.2835 74.919 10.2437 74.919C11.1021 74.919 11.6038 75.8772 11.6038 77.3147C11.6038 79.2495 10.566 80.7274 8.505 81.3053L10.1998 84.0006C11.7214 83.4008 12.7997 82.5233 13.4409 81.3456C14.0895 80.1371 14.4203 78.7842 14.4017 77.4138C14.4017 73.8903 12.6011 71.7265 10.1413 71.7265L10.1419 71.7259ZM14.2037 58.8739V55.3812L0.201375 60.8703V65.4606L14.1947 70.938V67.4453L11.2944 66.3695V59.9435L14.2043 58.8739H14.2037ZM8.40319 65.2999L2.68031 63.1641L8.40319 61.0282V65.2999ZM14.2161 50.7102H8.8155V43.8452H5.8905V50.713H3.10163V43.2516H0.201375V53.9028H14.2161V50.7097V50.7102ZM0.201375 30.2977V41.0883H14.1947V30.0966H11.2944V37.8918H8.50556V30.8879H5.6025V37.898H3.10219V30.2971H0.201375V30.2977ZM8.00325 19.0809C7.71975 18.2997 7.20281 17.6243 6.52219 17.1461C5.8815 16.6634 5.103 16.3979 4.30031 16.389C1.9395 16.389 0.200813 18.1446 0.200813 21.0778V28.0605H14.2031V24.8674H8.90156V22.274C8.90156 20.9759 9.62381 20.2401 11.0025 20.2401C11.6708 20.2535 12.339 20.2266 13.0044 20.16C13.4196 20.1001 13.824 19.9791 14.2037 19.8016L14.1947 16.207H13.8848C13.1844 16.7076 12.2642 16.8655 10.9041 16.9456C9.3825 17.0257 8.31375 17.9038 8.00381 19.0814L8.00325 19.0809ZM6.00187 24.8668H3.10163V21.1764C3.10163 20.039 3.64388 19.4796 4.50225 19.4796C5.36063 19.4796 6.00187 20.039 6.00187 21.1764V24.8668ZM6.83719 11.5758C4.89769 11.5758 3.41663 10.5403 2.83388 8.48456L0.135 10.1819C0.73575 11.6995 1.61606 12.7753 2.79675 13.4148C4.00613 14.0638 5.36175 14.3937 6.73537 14.373C10.2707 14.373 12.4397 12.577 12.4397 10.1231C12.4397 7.50792 10.9181 6.51 7.37663 5.85144C5.53613 5.51152 4.43588 5.01368 4.43588 3.99672C4.43588 3.26088 5.19525 2.70144 6.33825 2.69528C7.84125 2.69528 8.73956 3.39416 9.24131 4.98904L11.8412 3.49328C11.0424 1.19952 9.09956 0 6.44063 0C3.25856 0 1.23806 1.78976 1.23806 3.9536C1.23806 6.60576 3.17756 8.00296 6.14025 8.42296C8.61919 8.78136 9.23906 9.26072 9.23906 10.2189C9.23906 11.0779 8.27831 11.5758 6.83775 11.5758H6.83719ZM21.0021 0.2072H14.2999V14.1753H17.4915V8.98856H21.0021C24.0818 8.98856 25.7023 6.85272 25.7023 4.578C25.7023 2.30328 24.1223 0.2072 21.0021 0.2072ZM20.7911 6.0928H17.4909V3.10072H20.7911C21.8323 3.10072 22.4921 3.63832 22.4921 4.59648C22.4921 5.55464 21.8323 6.09224 20.7911 6.09224V6.0928ZM30.2456 0.2072L24.7427 14.1753H28.2443L29.3254 11.2823H35.7733L36.8421 14.1753H40.3436L34.8441 0.2072H30.2456ZM30.4037 8.38936L32.5451 2.68016L34.686 8.38936H30.4037ZM47.6685 11.4834C45.4281 11.4834 43.5071 9.75576 43.5071 7.15904C43.5071 4.56232 45.3476 2.86552 47.5881 2.86552C49.5309 2.86552 50.9501 4.01856 51.3495 5.95672L54.2902 4.64016C53.6923 2.04008 51.3501 0.00336 47.6505 0.00336C46.6898 -0.02576 45.7335 0.13888 44.8386 0.48776C43.9436 0.83664 43.1286 1.36304 42.4423 2.03392C41.7566 2.70536 41.2132 3.50784 40.8465 4.39376C40.4798 5.27968 40.2958 6.23056 40.3071 7.18928C40.3071 11.3002 43.1888 14.3724 47.6511 14.3724C51.4901 14.3724 54.0529 12.2394 54.8708 8.8088L51.93 7.63112C51.4716 9.96464 50.049 11.4822 47.6696 11.4822L47.6685 11.4834ZM59.9417 8.48792H66.9752V5.59496H59.9417V3.10072H67.5737V0.2072H56.7506V14.163H67.7661V11.27H59.9423V8.48792H59.9417ZM75.9369 5.85144C74.0964 5.51152 72.9962 5.01368 72.9962 3.99672C72.9962 3.26088 73.7556 2.70144 74.8986 2.69528C76.4016 2.69528 77.2999 3.39416 77.8016 4.98904L80.4015 3.49328C79.6028 1.19952 77.6599 0 75.0009 0C71.8189 0 69.7984 1.78976 69.7984 3.9536C69.7984 6.60576 71.7379 8.00296 74.7006 8.42296C77.1795 8.78136 77.7994 9.26072 77.7994 10.2189C77.7994 11.0779 76.8386 11.5758 75.3981 11.5758C73.4552 11.5758 71.9775 10.5403 71.3976 8.48456L68.6959 10.1814C69.2972 11.699 70.1769 12.7747 71.3576 13.4142C72.5676 14.0627 73.9226 14.3926 75.2962 14.3724C78.8316 14.3724 81.0006 12.5765 81.0006 10.1226C81.0006 7.50736 79.479 6.50944 75.9375 5.85088L75.9369 5.85144Z" fill="#2A1482"></path></g><defs><clipPath id="clip0_6455_45955"><rect width="81" height="84" fill="white"></rect></clipPath></defs></svg>