<svg xmlns="http://www.w3.org/2000/svg" width="147" height="70" viewBox="0 0 147 70" fill="none">
  <g fill="#2A1482">
    <path d="M13.151 16.869c-1.489 1.548-3.268 2.124-5.254 2.124-1.986 0-3.714-.736-5.021-2.048-1.881-1.887-1.83-4.222-1.83-7.45 0-3.228-.051-5.564 1.83-7.451C4.183.736 5.806 0 7.897 0c4.314 0 6.51 2.835 7.008 5.982h-3.66c-.418-1.756-1.489-2.728-3.348-2.728-.995 0-1.804.393-2.327.998-.705.787-.89 1.654-.89 5.246 0 3.593.182 4.485.89 5.272.523.605 1.332.97 2.327.97 1.097 0 1.986-.394 2.59-1.05.602-.681.834-1.523.834-2.492v-.707H7.897V8.45h7.033v2.729c0 2.703-.472 4.328-1.779 5.694v-.003ZM18.612 18.836V.156h12.261V3.41h-8.627v4.383h7.346v3.253h-7.346v4.54h8.627v3.253H18.612v-.003ZM47.659 18.836V7.949l-3.555 7.083h-2.458L38.062 7.95v10.887h-3.634V.156h3.584l4.861 10.1L47.71.156h3.583v18.68H47.66ZM55.629 18.836V.156H67.89V3.41h-8.627v4.383h7.346v3.253h-7.346v4.54h8.627v3.253H55.63v-.003ZM71.445 18.836V.156h3.634v18.68h-3.634ZM90.427 18.836 83.053 7.37v11.466h-3.635V.156h3.243l7.374 11.44V.156h3.635v18.68h-3.243ZM103.132 18.993c-2.825 0-4.967-.605-6.797-2.467l2.353-2.36c1.176 1.18 2.77 1.573 4.495 1.573 2.145 0 3.293-.812 3.293-2.31 0-.655-.182-1.206-.574-1.574-.367-.342-.784-.524-1.648-.655l-2.248-.314c-1.594-.236-2.77-.736-3.609-1.548-.89-.893-1.333-2.099-1.333-3.673C97.064 2.332 99.523 0 103.55 0c2.564 0 4.419.63 6.013 2.179l-2.302 2.28c-1.176-1.129-2.589-1.286-3.816-1.286-1.935 0-2.876 1.075-2.876 2.361 0 .474.156.97.549 1.337.366.343.969.63 1.724.736l2.197.314c1.699.237 2.77.706 3.555 1.442.994.944 1.437 2.31 1.437 3.96 0 3.622-3.006 5.666-6.902 5.666l.004.004ZM124.045 18.836l-1.096-3.305h-6.616l-1.125 3.305h-3.791l6.772-18.68h2.85l6.797 18.68h-3.791Zm-4.338-13.171-2.353 6.795h4.629l-2.273-6.795h-.003ZM143.365 18.836V7.949l-3.554 7.083h-2.458l-3.584-7.083v10.887h-3.634V.156h3.583l4.862 10.1 4.836-10.1H147v18.68h-3.635ZM13.151 42.372c-1.489 1.549-3.268 2.124-5.254 2.124-1.986 0-3.714-.735-5.021-2.047-1.881-1.887-1.83-4.223-1.83-7.45 0-3.229-.051-5.564 1.83-7.451C4.183 26.236 5.802 25.5 7.897 25.5c4.314 0 6.51 2.834 7.008 5.982h-3.66c-.418-1.756-1.489-2.729-3.348-2.729-.995 0-1.804.394-2.327.999-.705.787-.89 1.654-.89 5.246 0 3.593.182 4.485.89 5.272.523.605 1.332.97 2.327.97 1.097 0 1.986-.394 2.59-1.05.602-.681.834-1.523.834-2.492v-.707H7.897V33.95h7.033v2.729c0 2.703-.472 4.328-1.779 5.694ZM18.612 44.34V25.66h12.261v3.254h-8.627v4.383h7.346v3.253h-7.346v4.54h8.627v3.253H18.612v-.003ZM45.905 42.372c-1.488 1.549-3.267 2.124-5.254 2.124-1.986 0-3.714-.735-5.021-2.047-1.88-1.887-1.83-4.223-1.83-7.45 0-3.229-.05-5.564 1.83-7.451 1.307-1.312 2.926-2.048 5.021-2.048 4.314 0 6.51 2.834 7.008 5.982h-3.66c-.418-1.756-1.489-2.729-3.348-2.729-.994 0-1.804.394-2.327.999-.704.787-.89 1.654-.89 5.246 0 3.593.182 4.485.89 5.272.523.605 1.333.97 2.327.97 1.097 0 1.986-.394 2.59-1.05.602-.681.834-1.523.834-2.492v-.707h-3.424V33.95h7.033v2.729c0 2.703-.472 4.328-1.779 5.694ZM51.37 44.34V25.66H63.63v3.254h-8.627v4.383h7.346v3.253h-7.346v4.54h8.627v3.253H51.37v-.003ZM78.191 44.34l-7.374-11.466V44.34h-3.635V25.66h3.243l7.374 11.44V25.66h3.635v18.68H78.19ZM6.797 70C3.972 70 1.83 69.395 0 67.533l2.353-2.36c1.176 1.18 2.77 1.573 4.495 1.573 2.146 0 3.293-.812 3.293-2.31 0-.656-.181-1.206-.574-1.574-.366-.342-.784-.524-1.648-.656l-2.248-.313c-1.594-.237-2.77-.736-3.609-1.548-.89-.893-1.332-2.099-1.332-3.673 0-3.333 2.458-5.665 6.485-5.665 2.563 0 4.418.63 6.012 2.179l-2.302 2.28C9.75 54.336 8.337 54.18 7.11 54.18c-1.935 0-2.875 1.075-2.875 2.361 0 .474.156.97.548 1.337.367.343.97.63 1.725.736l2.196.314c1.7.236 2.77.706 3.555 1.442.995.944 1.438 2.31 1.438 3.96 0 3.622-3.007 5.666-6.903 5.666l.004.004ZM17.123 69.844v-18.68h12.262v3.254h-8.627V58.8h7.345v3.253h-7.345v4.54h8.627v3.253H17.123v-.003ZM42.245 69.844l-3.609-6.507-3.583 6.507h-4.158l5.777-9.575-5.414-9.105h4.132l3.243 6.033 3.267-6.033h4.103L40.59 60.27l5.805 9.575h-4.157.007ZM48.701 69.844v-18.68h3.635v18.68H48.7ZM61.801 70c-2.824 0-4.967-.605-6.797-2.467l2.353-2.36c1.177 1.18 2.77 1.573 4.495 1.573 2.146 0 3.294-.812 3.294-2.31 0-.656-.182-1.206-.574-1.574-.367-.342-.785-.524-1.649-.656l-2.247-.313c-1.594-.237-2.77-.736-3.61-1.548-.889-.893-1.332-2.099-1.332-3.673 0-3.333 2.458-5.665 6.485-5.665 2.563 0 4.419.63 6.013 2.179l-2.302 2.28c-1.177-1.13-2.59-1.286-3.816-1.286-1.936 0-2.876 1.075-2.876 2.361 0 .474.156.97.548 1.337.367.343.97.63 1.725.736l2.197.314c1.699.236 2.77.706 3.554 1.442.995.944 1.438 2.31 1.438 3.96 0 3.622-3.006 5.666-6.902 5.666L61.8 70ZM85.355 69.844V58.957L81.8 66.04h-2.458l-3.584-7.083v10.887h-3.634v-18.68h3.584l4.861 10.1 4.837-10.1h3.583v18.68h-3.634ZM99.89 70c-3.817 0-6.852-2.597-6.852-6.558V51.164h3.634v12.147c0 2.15 1.257 3.436 3.217 3.436 1.961 0 3.243-1.286 3.243-3.436V51.164h3.609v12.278c0 3.96-3.032 6.558-6.852 6.558ZM115.916 70c-2.825 0-4.967-.605-6.797-2.467l2.353-2.36c1.176 1.18 2.77 1.573 4.495 1.573 2.146 0 3.293-.812 3.293-2.31 0-.656-.182-1.206-.574-1.574-.366-.342-.784-.524-1.648-.656l-2.248-.313c-1.594-.237-2.77-.736-3.609-1.548-.889-.893-1.332-2.099-1.332-3.673 0-3.333 2.458-5.665 6.484-5.665 2.564 0 4.419.63 6.013 2.179l-2.302 2.28c-1.176-1.13-2.589-1.286-3.816-1.286-1.935 0-2.875 1.075-2.875 2.361 0 .474.156.97.548 1.337.366.343.969.63 1.724.736l2.197.314c1.699.236 2.77.706 3.555 1.442.995.944 1.438 2.31 1.438 3.96 0 3.622-3.007 5.666-6.903 5.666l.004.004Z"/>
  </g>
</svg>
